PathFileType	4	(x/y/z)	S02_P20_T45
DataRate	CameraRate	NumFrames	NumMarkers	Units	OrigDataRate	OrigDataStartFrame	OrigNumFrames
240	240	4	51	mm	240	87	347
Frame#	Time	Sternum			R.Acromium			L.Acromium			Top.Head			R.ASIS			L.ASIS			R.PSIS			L.PSIS			R.Great.Tro			L.Great.Tro			R.Iliac.Crest			L.Iliac.Crest			V.Sacral			R.Thigh.Upper.Post			R.Thigh.Lower.Ant			R.Thigh.Lower.Post			R.Thigh.Upper.Ant			R.Knee.Lat			R.Knee.Med			R.Shank.Upper.Post			R.Shank.Lower.Ant			R.Shank.Lower.Post			R.Shank.Upper.Ant			R.Ankle.Lat			R.Ankle.Med			R.Heel.Upper			R.Heel.Med			R.Heel.Lat			R.Toe.Lat			R.Toe.Med			R.Toe.Tip			L.Thigh.Upper.Post			L.Thigh.Lower.Ant			L.Thigh.Lower.Post			L.Thigh.Upper.Ant			L.Knee.Lat			L.Knee.Med			L.Shank.Upper.Post			L.Shank.Lower.Ant			L.Shank.Lower.Post			L.Shank.Upper.Ant			L.Ankle.Lat			L.Ankle.Med			L.Heel.Upper			L.Heel.Med			L.Heel.Lat			L.Toe.Lat			L.Toe.Med			L.Toe.Tip			Cervical.Spine			Back			
		X1	Y1	Z1	X2	Y2	Z2	X3	Y3	Z3	X4	Y4	Z4	X5	Y5	Z5	X6	Y6	Z6	X7	Y7	Z7	X8	Y8	Z8	X9	Y9	Z9	X10	Y10	Z10	X11	Y11	Z11	X12	Y12	Z12	X13	Y13	Z13	X14	Y14	Z14	X15	Y15	Z15	X16	Y16	Z16	X17	Y17	Z17	X18	Y18	Z18	X19	Y19	Z19	X20	Y20	Z20	X21	Y21	Z21	X22	Y22	Z22	X23	Y23	Z23	X24	Y24	Z24	X25	Y25	Z25	X26	Y26	Z26	X27	Y27	Z27	X28	Y28	Z28	X29	Y29	Z29	X30	Y30	Z30	X31	Y31	Z31	X32	Y32	Z32	X33	Y33	Z33	X34	Y34	Z34	X35	Y35	Z35	X36	Y36	Z36	X37	Y37	Z37	X38	Y38	Z38	X39	Y39	Z39	X40	Y40	Z40	X41	Y41	Z41	X42	Y42	Z42	X43	Y43	Z43	X44	Y44	Z44	X45	Y45	Z45	X46	Y46	Z46	X47	Y47	Z47	X48	Y48	Z48	X49	Y49	Z49	X50	Y50	Z50	X51	Y51	Z51	

87	0.35833	-835.94	1102.2	301.39	-942.57	1348.6	430.21	-921.39	1339.6	136.94	-858.71	1624	281.68	-880.89	943.86	398.38	-871.2	922.23	190.78	-1089.3	979.55	349.31	-1095.7	983.58	277.05	-937.07	834.09	496.78	-1010.1	838.64	110.77	-980.3	986.52	457.9	-995.2	974.88	129.58	-1118.8	933.5	309.18	-839.53	645.49	490.2	-753.38	600.02	457.87	-814	560.76	470.41	-783.48	683.44	474.36	-769.92	497.75	456.79	-761.53	489.93	315.4	-875.5	309.81	431.56	-814.02	218.72	420.88	-880.13	237.16	422.61	-806.36	286.17	437.58	-878.03	139.99	412.03	-856.53	158.48	328.96	-933.6	142.07	349.29	-922.95	111.24	319.7	-941.45	108.1	381.28	-793.58	61.495	437.72	-750.22	57.978	335.32	-706.26	70.209	397.63	-1067.2	616.57	148.85	-1001.6	527.56	154.77	-1079.3	529.53	174.09	-996.96	619.94	130.72	-1032	450.03	169.57	-1030.9	452.77	309.7	-1144.9	296.31	180.49	-1090.6	199.89	197.24	-1160.7	226.11	199.87	-1083.4	273.82	178.24	-1150.4	105.16	215.12	-1138.2	103.4	297.28	-1213.7	72.902	250.62	-1205.8	47.505	283.66	-1208.4	45.207	222.22	-1042.8	34.388	193.16	-1022.2	45.289	303.04	-960.53	58.306	255.57	-1004.4	1406.7	277.65	-1091.3	1159.5	285.68
88	0.3625	-830.49	1101.4	301.28	-937.15	1347.8	430.23	-915.66	1338.7	136.9	-853.1	1623.2	281.92	-875.23	943.09	398.28	-866.02	921.19	190.56	-1083.9	978.69	349.62	-1090.4	982.62	277.37	-930.8	833.72	496.93	-1005.5	838.11	110.73	-974.78	985.8	457.93	-990.11	973.88	129.65	-1113.4	932.55	309.59	-833.5	644.83	489.42	-747.55	599.4	456.58	-808.09	560.1	469.32	-777.55	682.79	473.35	-763.76	497.35	455.41	-756.56	489.45	314.08	-864.27	306.45	430.85	-800.17	217.19	419.78	-866.75	233.7	421.75	-794.46	284.86	436.45	-861.96	136.55	411.11	-840.99	155.44	328.01	-917.64	136.77	348.42	-906.05	106.17	318.92	-924.43	102.67	380.49	-775.19	60.71	437	-731.85	58.148	334.55	-688.24	71.847	396.81	-1064	616.68	149.13	-999	527.21	154.78	-1076.6	529.73	174.38	-993.8	619.56	130.76	-1029.9	449.83	169.55	-1028.7	452.46	309.65	-1143.5	296.77	180.49	-1089.9	200.01	197.27	-1159.9	226.53	200.07	-1082.2	273.89	178.27	-1150.2	105.48	215.21	-1137.8	103.6	297.41	-1213.6	73.223	250.71	-1205.7	47.832	283.75	-1208.3	45.534	222.32	-1042.7	34.351	193.17	-1022.1	45.217	303.06	-960.46	58.093	255.57	-998.71	1405.9	277.55	-1085.7	1158.8	285.35
89	0.36667	-825.02	1100.5	301.19	-931.69	1346.9	430.24	-909.9	1337.8	136.87	-847.49	1622.4	282.18	-869.53	942.25	398.2	-860.81	920.09	190.35	-1078.5	977.78	349.93	-1085	981.62	277.7	-924.55	833.26	497.08	-1000.8	837.56	110.7	-969.24	985.03	457.96	-985.01	972.85	129.74	-1108	931.57	310	-827.52	644.06	488.64	-741.8	598.64	455.26	-802.25	559.32	468.25	-771.67	682.02	472.29	-757.7	496.82	454.05	-751.74	488.79	312.75	-853.09	303.14	430.15	-786.46	215.76	418.65	-853.43	230.35	420.89	-782.67	283.61	435.32	-845.94	133.25	410.17	-825.5	152.52	327.06	-901.72	131.62	347.56	-889.19	101.29	318.13	-907.42	97.423	379.69	-756.95	60.127	436.22	-713.69	58.529	333.71	-670.45	73.677	395.9	-1060.7	616.76	149.39	-996.32	526.84	154.79	-1073.9	529.89	174.66	-990.54	619.15	130.8	-1027.7	449.61	169.53	-1026.4	452.16	309.61	-1142.1	297.26	180.47	-1089.1	200.13	197.3	-1159.1	226.98	200.24	-1081	273.95	178.3	-1149.9	105.81	215.31	-1137.4	103.81	297.55	-1213.4	73.563	250.8	-1205.6	48.183	283.84	-1208.3	45.878	222.42	-1042.7	34.314	193.18	-1022	45.147	303.08	-960.38	57.871	255.57	-993.02	1405.1	277.47	-1080.2	1158	285.04
90	0.37083	-819.53	1099.5	301.11	-926.22	1345.9	430.27	-904.11	1336.9	136.87	-841.89	1621.5	282.45	-863.8	941.35	398.14	-855.57	918.93	190.14	-1073	976.82	350.24	-1079.7	980.59	278.01	-918.3	832.71	497.24	-996.19	836.99	110.68	-963.68	984.2	458.01	-979.91	971.77	129.84	-1102.5	930.55	310.4	-821.57	643.19	487.87	-736.13	597.74	453.92	-796.47	558.43	467.22	-765.83	681.12	471.16	-751.74	496.16	452.72	-747.06	487.97	311.4	-841.96	299.89	429.45	-772.91	214.44	417.52	-840.2	227.11	420.04	-771.02	282.41	434.19	-830.03	130.12	409.21	-810.1	149.73	326.11	-885.89	126.65	346.7	-872.43	96.613	317.33	-890.48	92.373	378.9	-738.88	59.739	435.4	-695.78	59.118	332.79	-652.92	75.692	394.9	-1057.3	616.79	149.65	-993.53	526.44	154.82	-1071	530.02	174.95	-987.17	618.71	130.85	-1025.5	449.37	169.52	-1024.1	451.86	309.56	-1140.5	297.75	180.45	-1088.2	200.24	197.32	-1158.2	227.44	200.39	-1079.8	273.99	178.33	-1149.7	106.16	215.4	-1137	104.04	297.69	-1213.2	73.925	250.88	-1205.5	48.561	283.94	-1208.3	46.242	222.52	-1042.7	34.276	193.2	-1021.9	45.081	303.09	-960.3	57.642	255.58	-987.32	1404.3	277.41	-1074.6	1157.1	284.75
